<mxfile host="app.diagrams.net" agent="Mozilla/5.0 (X11; Linux x86_64) AppleWebKit/537.36 (KHTML, like Gecko) Chrome/128.0.0.0 Safari/537.36" version="24.7.12">
  <diagram id="6a731a19-8d31-9384-78a2-239565b7b9f0" name="Page-1">
    <mxGraphModel dx="1434" dy="759" grid="1" gridSize="10" guides="1" tooltips="1" connect="1" arrows="1" fold="1" page="1" pageScale="1" pageWidth="1169" pageHeight="827" background="none" math="0" shadow="0">
      <root>
        <mxCell id="0" />
        <mxCell id="1" parent="0" />
        <mxCell id="1351" value="API private" style="ellipse;whiteSpace=wrap;html=1;shadow=0;fontFamily=Helvetica;fontSize=20;fontColor=#FFFFFF;align=center;strokeWidth=3;fillColor=#F08705;strokeColor=none;gradientColor=none;" parent="1" vertex="1">
          <mxGeometry x="705" y="230" width="90" height="90" as="geometry" />
        </mxCell>
        <mxCell id="1352" value="API external" style="ellipse;whiteSpace=wrap;html=1;shadow=0;fontFamily=Helvetica;fontSize=20;fontColor=#FFFFFF;align=center;strokeWidth=3;fillColor=#E85642;strokeColor=none;" parent="1" vertex="1">
          <mxGeometry x="1660" y="190" width="120" height="120" as="geometry" />
        </mxCell>
        <mxCell id="1360" style="endArrow=none;strokeWidth=6;strokeColor=#f08705;html=1;" parent="1" source="1515" target="1351" edge="1">
          <mxGeometry relative="1" as="geometry" />
        </mxCell>
        <mxCell id="1361" style="endArrow=none;strokeWidth=6;strokeColor=#E85642;html=1;" parent="1" source="1515" target="1352" edge="1">
          <mxGeometry relative="1" as="geometry" />
        </mxCell>
        <mxCell id="1398" value="&lt;div&gt;Api::BaseController&lt;br&gt;&lt;/div&gt;" style="rounded=1;fillColor=#e1d5e7;strokeColor=#9673a6;strokeWidth=3;shadow=0;html=1;" parent="1" vertex="1">
          <mxGeometry x="690" y="370" width="120" height="40" as="geometry" />
        </mxCell>
        <mxCell id="1410" value="" style="edgeStyle=none;endArrow=none;strokeWidth=3;strokeColor=#9673a6;html=1;fillColor=#e1d5e7;" parent="1" source="1351" target="1398" edge="1">
          <mxGeometry x="3.5" y="21.5" width="100" height="100" as="geometry">
            <mxPoint x="3.5" y="121.5" as="sourcePoint" />
            <mxPoint x="103.5" y="21.5" as="targetPoint" />
          </mxGeometry>
        </mxCell>
        <mxCell id="1415" value="Api::External::ExternalBaseController" style="rounded=1;fillColor=#f08e81;strokeColor=none;strokeWidth=3;shadow=0;html=1;fontColor=#FFFFFF;" parent="1" vertex="1">
          <mxGeometry x="1370" y="400" width="240" height="40" as="geometry" />
        </mxCell>
        <mxCell id="1418" value="Api::BaseController" style="rounded=1;fillColor=#e1d5e7;strokeColor=#9673a6;strokeWidth=3;shadow=0;html=1;" parent="1" vertex="1">
          <mxGeometry x="1660" y="470" width="120" height="40" as="geometry" />
        </mxCell>
        <mxCell id="1429" value="" style="edgeStyle=none;endArrow=none;strokeWidth=3;strokeColor=#9673a6;html=1;fillColor=#e1d5e7;" parent="1" source="1352" target="1418" edge="1">
          <mxGeometry x="31" y="106.5" width="100" height="100" as="geometry">
            <mxPoint x="-90" y="630" as="sourcePoint" />
            <mxPoint x="10" y="530" as="targetPoint" />
          </mxGeometry>
        </mxCell>
        <mxCell id="1514" style="edgeStyle=orthogonalEdgeStyle;rounded=0;html=1;exitX=0.75;exitY=0;entryX=0.75;entryY=0;startArrow=none;startFill=0;endArrow=block;endFill=1;jettySize=auto;orthogonalLoop=1;strokeColor=#12aab5;strokeWidth=6;fontSize=20;fontColor=#2F5B7C;" parent="1" edge="1">
          <mxGeometry relative="1" as="geometry">
            <mxPoint x="1400" y="515" as="sourcePoint" />
            <mxPoint x="1400" y="515" as="targetPoint" />
          </mxGeometry>
        </mxCell>
        <mxCell id="1515" value="API" style="ellipse;whiteSpace=wrap;html=1;shadow=0;fontFamily=Helvetica;fontSize=30;fontColor=#2F5B7C;align=center;strokeColor=#2F5B7C;strokeWidth=6;fillColor=#FFFFFF;fontStyle=1;gradientColor=none;" parent="1" vertex="1">
          <mxGeometry x="1030" y="10" width="270" height="270" as="geometry" />
        </mxCell>
        <mxCell id="1IKVDsh58nEM-kfPcXsz-1543" value="&lt;div&gt;Api::Private::PrivateApiApplicationController&lt;br&gt;&lt;/div&gt;" style="rounded=1;fillColor=#f5af58;strokeColor=none;strokeWidth=3;shadow=0;html=1;fontColor=#FFFFFF;" parent="1" vertex="1">
          <mxGeometry x="625" y="460" width="250" height="40" as="geometry" />
        </mxCell>
        <mxCell id="1IKVDsh58nEM-kfPcXsz-1545" value="" style="edgeStyle=none;endArrow=none;strokeWidth=3;strokeColor=#F5AF58;html=1;" parent="1" source="1IKVDsh58nEM-kfPcXsz-1543" target="1398" edge="1">
          <mxGeometry x="3.5" y="21.5" width="100" height="100" as="geometry">
            <mxPoint x="3.5" y="101.5" as="sourcePoint" />
            <mxPoint x="103.5" y="1.5" as="targetPoint" />
          </mxGeometry>
        </mxCell>
        <mxCell id="AqXKA8llv-UzUpxm6iX--1515" value="&lt;div&gt;rescue_from ..., with: ...&lt;br&gt;&lt;/div&gt;" style="rounded=1;fillColor=#f8cecc;strokeColor=#b85450;strokeWidth=3;shadow=0;html=1;" parent="1" vertex="1">
          <mxGeometry x="1030" y="400" width="150" height="40" as="geometry" />
        </mxCell>
        <mxCell id="AqXKA8llv-UzUpxm6iX--1516" value="" style="edgeStyle=none;endArrow=none;strokeWidth=3;strokeColor=#b85450;html=1;fillColor=#f8cecc;" parent="1" source="1IKVDsh58nEM-kfPcXsz-1543" target="AqXKA8llv-UzUpxm6iX--1515" edge="1">
          <mxGeometry x="3.5" y="21.5" width="100" height="100" as="geometry">
            <mxPoint x="3.5" y="101.5" as="sourcePoint" />
            <mxPoint x="103.5" y="1.5" as="targetPoint" />
          </mxGeometry>
        </mxCell>
        <mxCell id="AqXKA8llv-UzUpxm6iX--1517" value="&lt;div&gt;before_action ...&lt;br&gt;&lt;/div&gt;" style="rounded=1;fillColor=#f8cecc;strokeColor=#b85450;strokeWidth=3;shadow=0;html=1;" parent="1" vertex="1">
          <mxGeometry x="1030" y="570" width="150" height="40" as="geometry" />
        </mxCell>
        <mxCell id="AqXKA8llv-UzUpxm6iX--1518" value="" style="edgeStyle=none;endArrow=none;strokeWidth=3;strokeColor=#b85450;html=1;fillColor=#f8cecc;" parent="1" source="1IKVDsh58nEM-kfPcXsz-1543" target="AqXKA8llv-UzUpxm6iX--1517" edge="1">
          <mxGeometry x="3.5" y="21.5" width="100" height="100" as="geometry">
            <mxPoint x="3.5" y="101.5" as="sourcePoint" />
            <mxPoint x="103.5" y="1.5" as="targetPoint" />
          </mxGeometry>
        </mxCell>
        <mxCell id="AqXKA8llv-UzUpxm6iX--1519" value="Api::External::Prime::ApplicationController" style="rounded=1;fillColor=#f08e81;strokeColor=none;strokeWidth=3;shadow=0;html=1;fontColor=#FFFFFF;" parent="1" vertex="1">
          <mxGeometry x="1370" y="570" width="240" height="40" as="geometry" />
        </mxCell>
        <mxCell id="AqXKA8llv-UzUpxm6iX--1520" value="" style="edgeStyle=none;endArrow=none;strokeWidth=3;strokeColor=#F08E81;html=1;" parent="1" source="AqXKA8llv-UzUpxm6iX--1519" target="1418" edge="1">
          <mxGeometry x="31" y="106.5" width="100" height="100" as="geometry">
            <mxPoint x="-90" y="650" as="sourcePoint" />
            <mxPoint x="10" y="550" as="targetPoint" />
          </mxGeometry>
        </mxCell>
        <mxCell id="AqXKA8llv-UzUpxm6iX--1522" value="" style="edgeStyle=none;endArrow=none;strokeWidth=3;strokeColor=#F08E81;html=1;" parent="1" source="1415" target="1418" edge="1">
          <mxGeometry x="31" y="106.5" width="100" height="100" as="geometry">
            <mxPoint x="-90" y="650" as="sourcePoint" />
            <mxPoint x="10" y="550" as="targetPoint" />
          </mxGeometry>
        </mxCell>
        <mxCell id="2UlYx8prNs_UvPSVfhWn-1515" value="" style="edgeStyle=none;endArrow=none;strokeWidth=3;strokeColor=#b85450;html=1;fillColor=#f8cecc;" edge="1" parent="1" source="1415" target="AqXKA8llv-UzUpxm6iX--1515">
          <mxGeometry x="3.5" y="21.5" width="100" height="100" as="geometry">
            <mxPoint x="3.5" y="101.5" as="sourcePoint" />
            <mxPoint x="103.5" y="1.5" as="targetPoint" />
          </mxGeometry>
        </mxCell>
        <mxCell id="2UlYx8prNs_UvPSVfhWn-1516" value="" style="edgeStyle=none;endArrow=none;strokeWidth=3;strokeColor=#b85450;html=1;fillColor=#f8cecc;" edge="1" parent="1" source="1415" target="AqXKA8llv-UzUpxm6iX--1517">
          <mxGeometry x="3.5" y="21.5" width="100" height="100" as="geometry">
            <mxPoint x="3.5" y="101.5" as="sourcePoint" />
            <mxPoint x="103.5" y="1.5" as="targetPoint" />
          </mxGeometry>
        </mxCell>
        <mxCell id="2UlYx8prNs_UvPSVfhWn-1517" value="" style="edgeStyle=none;endArrow=none;strokeWidth=3;strokeColor=#b85450;html=1;fillColor=#f8cecc;" edge="1" parent="1" source="AqXKA8llv-UzUpxm6iX--1519" target="AqXKA8llv-UzUpxm6iX--1515">
          <mxGeometry x="3.5" y="21.5" width="100" height="100" as="geometry">
            <mxPoint x="3.5" y="101.5" as="sourcePoint" />
            <mxPoint x="103.5" y="1.5" as="targetPoint" />
          </mxGeometry>
        </mxCell>
        <mxCell id="2UlYx8prNs_UvPSVfhWn-1518" value="" style="edgeStyle=none;endArrow=none;strokeWidth=3;strokeColor=#b85450;html=1;fillColor=#f8cecc;" edge="1" parent="1" source="AqXKA8llv-UzUpxm6iX--1519" target="AqXKA8llv-UzUpxm6iX--1517">
          <mxGeometry x="3.5" y="21.5" width="100" height="100" as="geometry">
            <mxPoint x="3.5" y="101.5" as="sourcePoint" />
            <mxPoint x="103.5" y="1.5" as="targetPoint" />
          </mxGeometry>
        </mxCell>
      </root>
    </mxGraphModel>
  </diagram>
</mxfile>
